# xmcd
#
# Track frame offsets:
#	150
#	18102
#	30690
#	43557
#	63585
#	75494
#	85184
#	98608
#	114456
#	128298
#	140329
#	155146
#	166927
#	177112
#	187126
#	199881
#	213639
#	221546
#	239512
#	254970
#
# Disc length: 3614 seconds
#
# Revision: 0
# Processed by: cddbd v1.5.2PL0 Copyright (c) Steve Scherf et al.
# Submitted via: dBpowerAMP V4.0
#
DISCID=180e1c14
DTITLE=Raizes do Sertão - As 20 mais Vol.3
DYEAR=1900
DGENRE=Sertanejo (Br)
TTITLE0=A morte do carreiro (Carreiro e Carreirinho)
TTITLE1=Boneca cobiçada (Pedro Bento e Zé da Estrada)
TTITLE2=A enxada e a caneta (Zico e Zeca)
TTITLE3=Jamais terei ilusão (Cascatinho e Inhana)
TTITLE4=Casinha pequenina (Caçula e Marinheiro)
TTITLE5=Alma de boêmio (Mococa e Moraci)
TTITLE6=Beijinho doce (Tibagi e Niltinho)
TTITLE7=Paineira véia (Nestor e Nestorzinho)
TTITLE8=Saudade da minha terra (Liu e Léu)
TTITLE9=Hoje é meu aniversáio (Tonico e Tinoco)
TTITLE10=Canoeiro (Zé Carreiro e Carreirinho)
TTITLE11=Arrependimento (Zico e Zalo)
TTITLE12=Trovas gauchas (Raul Torres e Florêncio)
TTITLE13=Orgulho (Tibagi e Miltinho)
TTITLE14=Recordações (Miro Alves e Neri Campos)
TTITLE15=Uma casa de caboclo (Nonô e Naná)
TTITLE16=Decepção (Zé Matão e Carreirinho)
TTITLE17=A sementinha (Bia e Dino Franco)
TTITLE18=Peão da cidade (Sulino e Marrueiro)
TTITLE19=Laço de saudade (Cacique e Pajé)
EXTD=
EXTT0=
EXTT1=
EXTT2=
EXTT3=
EXTT4=
EXTT5=
EXTT6=
EXTT7=
EXTT8=
EXTT9=
EXTT10=
EXTT11=
EXTT12=
EXTT13=
EXTT14=
EXTT15=
EXTT16=
EXTT17=
EXTT18=
EXTT19=
PLAYORDER=
